<?xml version="1.0" encoding="UTF-8"?>
<svg id="fish3BOTTOM_copy" data-name="fish3BOTTOM copy" xmlns="http://www.w3.org/2000/svg" xmlns:xlink="http://www.w3.org/1999/xlink" viewBox="0 0 464.09 320.03">
  <defs>
    <style>
      .cls-1 {
        clip-path: url(#clippath);
      }

      .cls-2 {
        stroke-width: 0px;
      }

      .cls-2, .cls-3, .cls-4, .cls-5, .cls-6, .cls-7, .cls-8, .cls-9 {
        fill: none;
      }

      .cls-10 {
        clip-path: url(#clippath-1);
      }

      .cls-3 {
        stroke-width: .75px;
      }

      .cls-3, .cls-4, .cls-11, .cls-5, .cls-6, .cls-7, .cls-8, .cls-9 {
        stroke: #570060;
      }

      .cls-3, .cls-4, .cls-11, .cls-5, .cls-6, .cls-8, .cls-9 {
        stroke-miterlimit: 10;
      }

      .cls-4 {
        stroke-width: .38px;
      }

      .cls-11 {
        fill: #ffebde;
      }

      .cls-5 {
        stroke-width: .15px;
      }

      .cls-7 {
        stroke-linecap: round;
        stroke-linejoin: round;
      }

      .cls-7, .cls-9 {
        stroke-width: .5px;
      }

      .cls-8 {
        stroke-width: .46px;
      }
    </style>
    <clipPath id="clippath">
      <path class="cls-2" d="M148.92,139.75c4.01,2.96,8.01,5.91,12.02,8.87-4.23,3.07-8.45,6.14-12.68,9.21,7.9-.18,12.84,11.44,7.23,17.01,2.4,2.03,4.8,4.05,7.2,6.08-1.92,2.8-3.85,5.61-5.77,8.41,3.03-.81,6.34,2.38,5.64,5.43,11.58,4.4,23.15,8.8,34.73,13.2,1.7.65,3.57,1.45,4.3,3.11s-.82,4.14-2.5,3.44c5.55,1.43,9.63,5.99,13.37,10.33.94,1.1,1.89,2.19,2.83,3.29,12.73,3.54,26.02-2.07,38.03-7.56,18.58-8.48,37.16-16.97,55.74-25.45-2.57-2.29-5.51-4.15-8.67-5.49,1.83-.27,3.56-1.12,4.91-2.39-4.12-1.14-4.08-6.23-2.52-9.18-1.21-.42-2.35-.97-3.43-1.66,9.26-12.15-8.17-9.8-16.18-11.93-14.84-3.94-29.37-8.73-44.37-12.15-14.95-3.41-30.05-6.17-45.24-8.28-7.41-1.03-14.84-1.9-22.29-2.62-4.65-.45-18.79.96-22.38-1.68Z"/>
    </clipPath>
    <clipPath id="clippath-1">
      <path class="cls-9" d="M24.69,171.09l.52.75c-1.37,6.27.71,13.18,5.31,17.66,2.33,3.42,2.59,7.91,1.22,11.79-1.66,4.7-1.63,9.8-.03,14.53,1.8,5.32,2.65,11.82,7.57,13.89-1.84,5.14-1.95,10.72-2.04,16.18-.19,12.3-.39,24.61-.58,36.91-.04,2.61,2.91,4.14,5.02,2.61l67.51-49.11-2.31-2.28,3-3.31-3.93-3.73c.28-1.98,1.58-3.78,3.37-4.67-1.69-1.71-3.38-3.42-5.06-5.13-.75-.76-1.44-6.05-2.84-7.82-1.54-1.95-5.68-3.44-7.67-4.75-8.07-5.35-16.37-10.4-24.69-15.35-13.28-7.91-26.81-15.41-40.55-22.49-2.75-1.42-5.57,1.79-3.82,4.34Z"/>
    </clipPath>
  </defs>
  <path class="cls-11" d="M412.24,118.68c-13.14-1.65-26.34-3.31-39.11-6.81-21.89-5.99-42.28-17.42-58.81-32.98-12.85-12.08-23.42-26.61-37.45-37.29l3.41,10.58c-14.75-10.68-41.12-31.86-55.87-42.53,1.06,2.35,24.67,22.74,25.73,25.09-11.96-12.08-45.32-26.34-61.03-32.82,10.03,7.66,26.61,14.32,33.06,25.16-15.9-9.21-35.46-14.77-51.36-23.98,10.23,9.23,23.11,15.92,31.12,27.13-13.01-10.52-28.83-17.54-45.36-20.12l35.84,31.61-51.74-15.44,28.35,23.57c-7.28.35-13.15-1.99-19.54-5.51-6.39-3.51-12.28-4.16-21.29-4.23l26.48,18.35-30.49-4.01c6.98,5.26,14.19,10.21,21.62,14.83l-36.25-10.42,16.92,19.41c-8.6-2.86-17.51-4.82-26.52-5.83,1.62,4.14,4.46,7.79,8.07,10.37-4.49-.6-8.93-1.65-13.21-3.13l7.46,7.79c-23.81-5.95-23.12,9.52-25.39,22.77-3.77,22.03,5.08,47.65,12.21,68.83,5.11,15.18,9.33,30.67,12.62,46.35,1.05,4.97,2,10.09,1.15,15.1-1.13,6.66-5.31,12.32-9.08,17.92-10.89,16.16-19.36,33.93-25.05,52.57l12.22-1.11c-.46,2.64.39,5.48,2.22,7.44,5.35-2.35,11.26,1.53,17.08,2.13,3.83.4,7.64-.66,11.34-1.71,48.01-13.57,97.56-27.93,135.91-59.83-14.29,14.81-30.41,27.87-47.86,38.77,1.95-1.33,4.19-.22,6.43-.97,2.88-.96,0,0-2.43,1.88,39.04-20.34,100.26-65.12,110.5-71.94,32.54-21.65,53.9-36,84.18-68.45,16.24-17.41,40.36-25.66,63.98-30.26,1.48-.29,1.77-2.31.4-2.94-6.73-3.14-4.18-7.84-1.57-11.02.75-.91-.01-2.26-1.18-2.1-10.41,1.44-42.44,8.46-47.73,7.79Z"/>
  <path class="cls-6" d="M378.07,143.79c-4.2,9.72-16.36,14.86-26.53,11.9-3.68-1.07-7.16-3.11-9.51-6.14-3.64-4.67-4.21-11.14-3.01-16.94,6.91-33.16,50.74-15.85,39.04,11.18Z"/>
  <path class="cls-6" d="M366.56,138.71c-1.69,3.9-6.57,5.97-10.65,4.78-1.48-.43-2.87-1.25-3.82-2.47-1.46-1.88-1.69-4.47-1.21-6.8,2.77-13.32,20.37-6.37,15.68,4.49Z"/>
  <path class="cls-6" d="M24.69,171.09l.52.75c-1.37,6.27.71,13.18,5.31,17.66,2.33,3.42,2.59,7.91,1.22,11.79-1.66,4.7-1.63,9.8-.03,14.53,1.8,5.32,2.65,11.82,7.57,13.89-1.84,5.14-1.95,10.72-2.04,16.18-.19,12.3-.39,24.61-.58,36.91-.04,2.61,2.91,4.14,5.02,2.61l67.51-49.11-2.31-2.28,3-3.31-3.93-3.73c.28-1.98,1.58-3.78,3.37-4.67-1.69-1.71-3.38-3.42-5.06-5.13-.75-.76-1.44-6.05-2.84-7.82-1.54-1.95-5.68-3.44-7.67-4.75-8.07-5.35-16.37-10.4-24.69-15.35-13.28-7.91-26.81-15.41-40.55-22.49-2.75-1.42-5.57,1.79-3.82,4.34Z"/>
  <path class="cls-9" d="M293.71,55.78c.95,2.9,1.9,5.79,2.85,8.69-6.3-2.86-12.6-5.71-18.9-8.57,1.67,3.5,3.34,7,5.01,10.49-8.48-6.43-16.96-12.87-25.44-19.3,3.57,8.28,7.14,16.56,10.72,24.84-11.76-9.99-23.14-20.42-34.11-31.26,4.83,7.86,9.1,16.07,12.76,24.54-12.54-7.88-24.09-17.33-34.31-28.04,8.43,8.27,15.11,18.31,19.47,29.28-15.13-6.09-29.36-14.4-42.09-24.58,10.12,8.72,18.69,19.22,25.2,30.88-10.75-6.91-21.5-13.82-32.26-20.72,9.73,8.71,18.13,18.91,24.82,30.12-14.07-8.59-29.43-15.06-45.4-19.14,12.87,6.64,23.89,16.83,31.52,29.14-11.46-6.52-22.93-13.05-34.39-19.57,5.42,6.23,10.83,12.46,16.25,18.68-9.65-5.26-20.01-9.23-30.7-11.79,8.33,6.28,15.94,13.5,22.66,21.48-8.11-5.31-17.14-9.21-26.57-11.46,5.24,4.93,10.48,9.85,15.72,14.78-8.93-6-19.51-9.52-30.26-10.06,4.1,2.67,8.2,5.35,12.3,8.02-12.55-3.32-25.49-5.13-38.47-5.4,9.16,3.52,17.93,8.07,26.1,13.52-16.05-5.66-33.3-7.93-50.27-6.6,3.78,2.43,8.11,4,12.57,4.56-1.71.64-3.42,1.28-5.13,1.92,4.96.65,9.91,1.3,14.87,1.96-6.41-1.02-13.05-.58-19.27,1.28,2.88,2.63,6.71,4.2,10.61,4.36-3.15.01-6.29.02-9.44.03,5.41,1.37,10.83,2.73,16.24,4.1-5.03-.25-10.09.29-14.95,1.57,2.95,1.15,5.9,2.29,8.85,3.44-2.52.42-5.04.84-7.56,1.27,3.81-.5,7.71-.33,11.46.52-3.22.76-6.44,1.53-9.65,2.29,4.45.96,8.9,1.93,13.34,2.89-4.91,1.54-9.81,3.08-14.72,4.62,4.61-.9,9.51-.19,13.68,1.96-4.07,1.34-8.13,2.68-12.2,4.02,3.2.74,6.39,1.49,9.59,2.23-1.78.5-3.56,1.01-5.34,1.51,3.65-.18,7.35.64,10.58,2.36-3.38,1.93-7.08,3.29-10.91,4.01,3.48-.53,7.08-.23,10.42.88-2.33.82-4.66,1.65-6.99,2.47,3.78-.15,7.6.84,10.83,2.82-3.58,2.33-7.65,3.9-11.86,4.6,3.19.19,6.39.38,9.58.58-1.82,1.42-4.03,2.32-6.32,2.6,3.24-.83,6.71-.74,9.9.25-2.25,2.26-5.13,3.9-8.23,4.67,3.9.08,7.79.15,11.69.23-2.32,1.75-5.03,2.98-7.88,3.57,2.81-.09,5.63-.18,8.44-.27-1.63,2.2-4.14,3.72-6.84,4.17,3.12.22,6.19,1.04,9.01,2.39-1.6,2.12-4.07,3.56-6.71,3.91,2.26.29,4.52.58,6.79.86-1.6.99-3.2,1.99-4.8,2.98,2.32.66,4.65,1.32,6.97,1.98-1.71,2.92-4.76,5.02-8.1,5.57,3.93-.47,7.96,0,11.67,1.38-1.38,2.37-3.87,4.07-6.58,4.49,2.41-.9,5.33-.2,7.07,1.69-6.14,3.08-13.18,4.32-20.01,3.53"/>
  <path class="cls-4" d="M100.76,245.06c12.08-2.23,24.07-4.91,35.95-8.05-10.36,3.58-20.49,7.83-30.31,12.72,9-3.96,19.01-5.59,28.8-4.69-9.58,4.27-19.17,8.54-28.75,12.8,8.95-1.57,17.91-3.14,26.86-4.71-13.05,5.99-26.1,11.97-39.14,17.96,10.2-3.55,20.79-6,31.52-7.27-10.65,4.72-21.3,9.44-31.95,14.16,10.3-2.37,20.59-4.75,30.89-7.12-9.44,5.55-19.45,10.15-29.81,13.68,9.62-2.92,19.45-5.2,29.38-6.79-10.21,5.64-20.79,10.62-31.64,14.88,11.27-4.03,22.74-8.1,34.7-8.73-12.32,5.73-24.63,11.45-36.95,17.18,8.32-2.31,16.64-4.61,24.96-6.92,6.6-1.83,13.38-3.68,20.21-3.08-14.89,6.78-29.78,13.56-44.67,20.33,13.62-3.79,27.24-7.59,40.86-11.38-9.49,4.37-18.99,8.74-28.48,13.12,12.95-4.02,25.96-7.86,39.01-11.54-4.73,4.16-10.18,7.5-16.03,9.83,7.14-2.33,20.24-8.86,27.71-9.62-3.9,3.98-23.06,11.4-28.41,12.96"/>
  <path class="cls-5" d="M343.06,184.14c-8.73-.05-18-.61-25.14-5.62-8.15-5.71-11.76-16.11-12.49-26.03-.73-9.92.9-19.87.85-29.82-.06-10.65-2.09-21.29-5.94-31.22,3.68,9.09,4.44,19.09,7.37,28.46,9.13,29.24,34.48,41,54.77,60.63-5.22,3.84-13.03,3.64-19.4,3.6Z"/>
  <path class="cls-3" d="M280.7,44.04c5.98,14.29.37,30.77,2.8,46.08,2.05,12.92,9.8,24.72,9.96,37.79.1,7.89-2.54,16.19.61,23.42,2.47,5.67,7.97,9.34,11.71,14.26,7.22,9.5,7.11,23.08,2.47,34.07-4.64,10.99-13.16,19.85-21.96,27.9,5.43-.55,10.86-1.1,16.28-1.65-17.64,12.07-36.37,22.55-55.89,31.27"/>
  <g class="cls-1">
    <path class="cls-8" d="M314.61,173.3c-56.92-13.33-119.45-31.68-169.76-32.56"/>
    <path class="cls-8" d="M313.35,177.56c-56.92-13.33-119.45-31.68-169.76-32.56"/>
    <path class="cls-8" d="M317.51,182.71c-56.92-13.33-119.45-31.68-169.76-32.56"/>
    <path class="cls-8" d="M315.57,184.48c-57.33-11.42-120.44-27.67-170.75-26.87"/>
    <path class="cls-8" d="M317.72,188.07c-57.62-9.88-121.14-24.45-171.41-22.3"/>
    <path class="cls-8" d="M318.69,191.34c-57.93-7.88-121.91-20.24-172.08-16.35"/>
    <path class="cls-8" d="M320.38,193.11c-58.16-5.9-122.53-16.07-172.53-10.47"/>
    <path class="cls-8" d="M313.09,166.78c-58.4-2.71-123.23-9.35-172.85-1.03"/>
    <path class="cls-8" d="M312.63,171.19c-58.4-2.71-123.23-9.35-172.85-1.03"/>
    <path class="cls-8" d="M317.67,175.5c-58.4-2.71-123.23-9.35-172.85-1.03"/>
    <path class="cls-8" d="M316.08,177.59c-58.45-.76-123.47-5.23-172.79,4.75"/>
    <path class="cls-8" d="M318.85,180.73c-58.45.8-123.56-1.93-172.6,9.36"/>
    <path class="cls-8" d="M320.4,183.77c-58.39,2.83-123.56,2.36-172.17,15.34"/>
    <path class="cls-8" d="M322.38,185.2c-58.26,4.82-123.4,6.57-171.55,21.2"/>
    <path class="cls-8" d="M308.93,182.57c-56.9,13.42-121.06,24.82-166.49,46.44"/>
    <path class="cls-8" d="M309.7,186.94c-56.9,13.42-121.06,24.82-166.49,46.44"/>
    <path class="cls-8" d="M315.72,189.7c-56.9,13.42-121.06,24.82-166.49,46.44"/>
    <path class="cls-8" d="M314.77,192.15c-56.42,15.31-120.16,28.86-164.85,51.98"/>
    <path class="cls-8" d="M318.29,194.41c-55.99,16.81-119.35,32.06-163.4,56.37"/>
    <path class="cls-8" d="M320.62,196.9c-55.37,18.74-118.17,36.17-161.35,61.99"/>
    <path class="cls-8" d="M322.91,197.74c-54.7,20.62-116.87,40.18-159.14,67.46"/>
    <path class="cls-8" d="M310.45,171c-58.21,5.4-123.33,7.81-171.32,22.92"/>
    <path class="cls-8" d="M310.6,175.43c-58.21,5.4-123.33,7.81-171.32,22.92"/>
    <path class="cls-8" d="M316.18,179c-58.21,5.4-123.33,7.81-171.32,22.92"/>
    <path class="cls-8" d="M314.9,181.29c-58,7.34-123,11.93-170.46,28.64"/>
    <path class="cls-8" d="M318.08,184.02c-57.78,8.89-122.64,15.21-169.64,33.18"/>
    <path class="cls-8" d="M320.04,186.81c-57.44,10.89-122.04,19.45-168.38,39.04"/>
    <path class="cls-8" d="M322.19,187.95c-57.03,12.84-121.31,23.6-166.96,44.75"/>
  </g>
  <path class="cls-6" d="M148.92,139.75c4.01,2.96,8.01,5.91,12.02,8.87-4.23,3.07-8.45,6.14-12.68,9.21,7.9-.18,12.84,11.44,7.23,17.01,2.4,2.03,4.8,4.05,7.2,6.08-1.92,2.8-3.85,5.61-5.77,8.41,3.03-.81,6.34,2.38,5.64,5.43,11.58,4.4,23.15,8.8,34.73,13.2,1.7.65,3.57,1.45,4.3,3.11s-.82,4.14-2.5,3.44c5.55,1.43,9.63,5.99,13.37,10.33.94,1.1,1.89,2.19,2.83,3.29,12.73,3.54,26.02-2.07,38.03-7.56,18.58-8.48,37.16-16.97,55.74-25.45-2.57-2.29-5.51-4.15-8.67-5.49,1.83-.27,3.56-1.12,4.91-2.39-4.12-1.14-4.08-6.23-2.52-9.18-1.21-.42-2.35-.97-3.43-1.66,9.26-12.15-8.17-9.8-16.18-11.93-14.84-3.94-29.37-8.73-44.37-12.15-14.95-3.41-30.05-6.17-45.24-8.28-7.41-1.03-14.84-1.9-22.29-2.62-4.65-.45-18.79.96-22.38-1.68Z"/>
  <g>
    <g class="cls-10">
      <g>
        <path class="cls-7" d="M67.12,191.8c-10.42-7.3-21.18-15.02-36.19-18.6,2.94.3,5.42,1.7,6.06,3.44-3.8-.79-7.6-1.58-11.4-2.37,21.56,6.19,36.75,17.84,53.85,27.74,5.66,3.28,14.95,8.3,23.49,7.2-14.68-4.21-25.31-10.06-35.8-17.41Z"/>
        <path class="cls-7" d="M62.69,197.19c-11.75-6.55-23.91-13.48-39.54-16.04,2.99.1,5.72,1.33,6.68,3-3.94-.53-7.88-1.06-11.81-1.6,22.65,4.71,39.96,15.25,58.85,23.94,6.25,2.87,16.45,7.23,24.76,5.58-15.42-3.21-27.11-8.3-38.94-14.89Z"/>
        <path class="cls-7" d="M59.09,201.76c-12.7-5.89-25.87-12.14-41.87-13.86,3-.06,5.91,1.02,7.11,2.64-4.01-.32-8.02-.64-12.04-.97,23.32,3.5,42.17,13.06,62.32,20.7,6.67,2.53,17.5,6.32,25.56,4.25-15.88-2.38-28.31-6.83-41.09-12.75Z"/>
        <path class="cls-7" d="M55.4,206.75c-13.65-5.1-27.82-10.53-44.08-11.31,2.98-.23,6.07.67,7.53,2.2-4.06-.09-8.12-.17-12.18-.26,23.86,2.11,44.25,10.5,65.62,16.9,7.08,2.12,18.51,5.25,26.22,2.73-16.24-1.43-29.38-5.12-43.12-10.26Z"/>
        <path class="cls-7" d="M53.75,212.67c-14.57-4.14-29.73-8.57-46.09-8.26,2.93-.43,6.18.26,7.93,1.68-4.06.19-8.13.37-12.19.56,24.19.5,46.1,7.44,68.62,12.35,7.45,1.63,19.45,3.97,26.66.95-16.47-.34-30.27-3.11-44.93-7.28Z"/>
        <path class="cls-7" d="M52.28,217.31c-15.19-3.32-31-6.91-47.29-5.71,2.86-.58,6.21-.08,8.17,1.24-4.03.4-8.06.81-12.09,1.21,24.24-.81,47.18,4.9,70.42,8.56,7.69,1.21,20.03,2.89,26.77-.5-16.5.55-30.7-1.46-45.99-4.8Z"/>
        <path class="cls-7" d="M51.95,223.66c-15.93-1.91-32.54-4.02-48.42-1.39,2.7-.83,6.15-.63,8.43.48-3.9.76-7.81,1.52-11.71,2.27,23.88-2.97,48.11.6,72.12,2.12,7.95.5,20.63,1.05,26.48-2.88-16.25,2.02-30.87,1.31-46.9-.61Z"/>
        <path class="cls-7" d="M53.42,227.99c-16.17-1.15-33.05-2.48-48.58.89,2.59-.95,6.07-.92,8.49.09-3.8.94-7.6,1.87-11.4,2.81,23.47-4.07,48.16-1.66,72.36-1.27,8.01.13,20.76.08,26.08-4.11-15.98,2.77-30.68,2.75-46.95,1.59Z"/>
        <path class="cls-7" d="M55.66,234.8c-16.34.68-33.45,1.27-47.74,6.28,2.26-1.22,5.71-1.57,8.42-.86-3.46,1.34-6.92,2.68-10.39,4.02,21.92-6.59,47.08-6.99,71.13-9.31,7.96-.77,20.54-2.24,24.49-6.92-14.92,4.49-29.46,6.11-45.91,6.79Z"/>
        <path class="cls-7" d="M58.97,241.33c-15.99,2.36-32.75,4.72-45.44,11.11,1.88-1.43,5.19-2.13,8.09-1.72-3.04,1.67-6.07,3.34-9.11,5.01,19.78-8.73,44.58-11.74,67.71-16.51,7.66-1.58,19.69-4.33,22.22-9.32-13.46,5.94-27.39,9.05-43.48,11.42Z"/>
        <path class="cls-7" d="M61.57,246.36c-15.59,3.24-31.96,6.53-43.61,13.59,1.65-1.52,4.85-2.41,7.8-2.16-2.77,1.83-5.53,3.66-8.3,5.49,18.36-9.78,42.65-14.16,64.99-20.2,7.4-2,18.97-5.4,20.71-10.5-12.5,6.66-25.91,10.52-41.6,13.78Z"/>
        <path class="cls-7" d="M68.45,251.7c-14.39,4.9-29.54,9.93-38.84,18.12,1.15-1.67,4.03-2.89,7.03-2.98-2.16,2.09-4.32,4.19-6.49,6.28,15.09-11.59,37.72-18.57,57.92-26.95,6.68-2.77,17.06-7.39,17.18-12.56-10.27,7.89-22.32,13.15-36.8,18.09Z"/>
        <path class="cls-7" d="M72.7,256.17c-13.16,6.04-28.01,11.44-36.07,20.07.9-1.72,3.59-3.09,6.58-3.33-1.84,2.19-3.69,4.39-5.53,6.58,13.32-12.32,69.71-38.11,69.06-43.25-9.07,8.39-13.87,10.67-34.03,19.93Z"/>
      </g>
    </g>
    <path class="cls-9" d="M24.69,171.09l.52.75c-1.37,6.27.71,13.18,5.31,17.66,2.33,3.42,2.59,7.91,1.22,11.79-1.66,4.7-1.63,9.8-.03,14.53,1.8,5.32,2.65,11.82,7.57,13.89-1.84,5.14-1.95,10.72-2.04,16.18-.19,12.3-.39,24.61-.58,36.91-.04,2.61,2.91,4.14,5.02,2.61l67.51-49.11-2.31-2.28,3-3.31-3.93-3.73c.28-1.98,1.58-3.78,3.37-4.67-1.69-1.71-3.38-3.42-5.06-5.13-.75-.76-1.44-6.05-2.84-7.82-1.54-1.95-5.68-3.44-7.67-4.75-8.07-5.35-16.37-10.4-24.69-15.35-13.28-7.91-26.81-15.41-40.55-22.49-2.75-1.42-5.57,1.79-3.82,4.34Z"/>
  </g>
</svg>